<svg xmlns="http://www.w3.org/2000/svg" width="32.594" height="40.719" viewBox="0 0 32.594 40.719"><defs><style>.a{fill:#95b446;}</style></defs><g transform="translate(-0.004)"><path class="a" d="M6.591,14.494c0-1.733-.025-3.358,0-4.979A9.508,9.508,0,0,1,16.356,0,9.5,9.5,0,0,1,26,9.453c.036,1.625.007,3.249.007,4.776.214.167.3.3.392.3,4.232-.091,6.4,2.02,6.186,6.694-.218,4.7-.033,9.424-.054,14.138-.015,3.445-1.94,5.341-5.41,5.349q-10.786.016-21.572,0c-3.579,0-5.465-1.882-5.475-5.465-.022-4.6.138-9.2-.051-13.779C-.161,17.152,1.057,14.606,6.591,14.494ZM16.3,37.447c3.565,0,7.125-.051,10.69.022,1.7.036,2.451-.685,2.448-2.342q-.011-7.43,0-14.856c0-1.6-.606-2.437-2.364-2.426q-10.781.076-21.557,0c-1.625-.011-2.35.693-2.35,2.248-.007,5.015,0,10.026-.007,15.038,0,1.661.751,2.371,2.451,2.335C9.173,37.4,12.737,37.447,16.3,37.447Zm6.708-22.906c-.123-2.245-.069-4.3-.388-6.306-.457-2.868-2.77-4.754-5.813-5.087-2.687-.294-5.715,1.3-6.444,3.963a48.227,48.227,0,0,0-.888,7.434C14.213,14.541,18.434,14.541,23.006,14.541Z" transform="translate(0 0)"/><path class="a" d="M42.321,65.716a3.456,3.456,0,1,0-4.95,3.111,1.347,1.347,0,0,0-.025.243v1.519a1.519,1.519,0,0,0,3.039,0V69.07a1.347,1.347,0,0,0-.025-.243A3.444,3.444,0,0,0,42.321,65.716Z" transform="translate(-22.568 -39.684)"/></g></svg>