<svg xmlns="http://www.w3.org/2000/svg" width="15.699" height="19.322" viewBox="0 0 15.699 19.322"><defs><style>.a{fill:#6c6d72;}</style></defs><path class="a" d="M12.076,0H.906A1.632,1.632,0,0,0,0,.906V18.416a1.637,1.637,0,0,0,.906.906H14.793a1.632,1.632,0,0,0,.906-.906V3.321ZM12.4,1.988l1.1,1H12.4ZM14.469,18.1H1.235V1.226h9.926V4.214h3.307C14.469,8.863,14.469,13.47,14.469,18.1Z"/><path class="a" d="M54.6,35.523c-.088.355-.171.8-.312,1.224a.5.5,0,0,0,.1.575,3.188,3.188,0,0,1,.236.294c.441.571.879,1.087,1.741.986a2.4,2.4,0,0,1,1.116.282.949.949,0,0,1,.574,1.2,1.015,1.015,0,0,1-1.191.618,2.7,2.7,0,0,1-1.5-.949.6.6,0,0,0-.657-.229,1.271,1.271,0,0,1-.3.036,2.1,2.1,0,0,0-2.112,1.4,2.825,2.825,0,0,1-.685.888.933.933,0,0,1-1.293.131.982.982,0,0,1-.179-1.357,3.523,3.523,0,0,1,1.781-1.33.8.8,0,0,0,.542-.516,2.65,2.65,0,0,1,.206-.443,1.9,1.9,0,0,0,.157-2.023,2.653,2.653,0,0,1-.158-1.251.917.917,0,1,1,1.825-.186C54.547,35.051,54.56,35.24,54.6,35.523Zm-1.146,3.282.863-.149-.525-.61Z" transform="translate(-46.184 -31.458)"/><path class="a" d="M88.6,167.66c.585.029,1.14.019,1.682.094a1.182,1.182,0,0,1,1.057.99,4.377,4.377,0,0,1,.019,1.481,1.309,1.309,0,0,1-1.311,1.089c-.473.026-.949.005-1.448.005Zm.8.715v2.288c.433.022.867.067,1.1-.356a1.627,1.627,0,0,0,0-1.591C90.265,168.285,89.83,168.347,89.4,168.375Z" transform="translate(-81.913 -155.006)"/><path class="a" d="M48.12,168.02c.55,0,1.078-.032,1.6.008a1.089,1.089,0,0,1-.032,2.176c-.259.02-.52,0-.815,0v1.423H48.12Zm.765,1.527c.354-.009.727.125.995-.177a.5.5,0,0,0,.02-.482c-.263-.349-.653-.175-1.015-.195Z" transform="translate(-44.488 -155.327)"/><path class="a" d="M134.6,168.291v.642h-1.555v.745h1.144v.673h-1.154v1.532h-.776V168.29Z" transform="translate(-122.277 -155.588)"/></svg>