<svg xmlns="http://www.w3.org/2000/svg" width="36.328" height="29" viewBox="0 0 36.328 29"><defs><style>.a{fill:#afb0b7;}</style></defs><g transform="translate(0.016)"><path class="a" d="M29.8,0h.4a1.39,1.39,0,0,1,1,1.2c.2,1,.4,2.1.6,3.1,0,.1.1.1.2.2,1.1.2,2.1.3,3.2.5a1.287,1.287,0,0,1,1.1,1.5c-.2,1.7-.5,3.4-.7,5.1-.3,2.3-.6,4.5-1,6.8,0,.3-.1.6-.1.8a25,25,0,0,0,.5,2.9,1.272,1.272,0,0,1-1,1.5.215.215,0,0,0-.2.2l-.3,2.4a1.244,1.244,0,0,1-1.4,1.1c-1.4-.2-2.9-.4-4.3-.6-1.7-.3-3.4-.5-5.1-.8a2.152,2.152,0,0,0-.8,0c-1.1.2-2.3.4-3.4.6l-6.6,1.2c-1.8.3-3.6.7-5.5,1L5.2,29H4.8a1.383,1.383,0,0,1-1.1-1.2c-.5-2.8-1-5.7-1.5-8.5C1.5,15.2.8,11.1,0,7A1.223,1.223,0,0,1,1,5.5c1.7-.3,3.4-.6,5-1a.215.215,0,0,0,.2-.2A18.457,18.457,0,0,0,6.6,2,1.273,1.273,0,0,1,8.2.9l3.9.6c1.6.2,3.1.5,4.7.7.3,0,.6.1.9.1,1.8-.3,3.7-.7,5.5-1,1.7-.3,3.5-.7,5.2-1C28.8.2,29.3.1,29.8,0Zm3.8,7.3C25.4,6.1,17.2,4.8,8.9,3.6,8.1,9.4,7.3,15.2,6.5,20.9l24.6,3.6C32,18.8,32.8,13,33.6,7.3ZM2.7,7.7c.6,3.2,1.2,6.4,1.7,9.6h0c.5-3.4,1-6.8,1.4-10.2C4.8,7.3,3.8,7.5,2.7,7.7Zm11.5,17h0c-2.9-.5-5.7-.9-8.6-1.3.2,1,.3,1.9.5,2.8ZM29.2,4A5.067,5.067,0,0,1,29,2.7c-1.2.2-2.4.5-3.6.7h0C26.7,3.7,27.9,3.8,29.2,4Z"/><path class="a" d="M23.1,11c.5,1,1,1.9,1.4,2.9.5,1,1,1.9,1.4,2.9.8-.8,1.5-1.6,2.3-2.4l1.5,8.4c-7.1-1-14.2-2.1-21.3-3.1,0-.1,0-.1.1-.2a4.36,4.36,0,0,1,3.3-2.7,7.321,7.321,0,0,1,3.6.1l2.1.6a.367.367,0,0,0,.3-.1c1.4-1.6,2.8-3.3,4.2-4.9A4.177,4.177,0,0,1,23.1,11Z"/><path class="a" d="M16.9,10.2a2.4,2.4,0,1,1-4.8,0,2.309,2.309,0,0,1,2.4-2.4A2.309,2.309,0,0,1,16.9,10.2Z"/></g></svg>