<svg xmlns="http://www.w3.org/2000/svg" width="27.9" height="35.6" viewBox="0 0 27.9 35.6"><defs><style>.a{fill:#afb0b7;}</style></defs><path class="a" d="M0,0H16.4a2.45,2.45,0,0,1,1.2.4c3.3,3.1,6.6,6.3,9.8,9.5a1.389,1.389,0,0,1,.5,1V35.6H.1C0,23.9,0,12,0,0ZM1.5,1.6V34.2H26.4V11.6H16.3V1.6ZM17.9,2.8v7.3h7.5C22.8,7.6,20.4,5.3,17.9,2.8Z"/><path class="a" d="M14.1,18.4a1.376,1.376,0,0,0,.1,1.1c.6.8,1.3,1.6,1.9,2.4.3.4.7.4,1.2.3a14.079,14.079,0,0,1,2.9-.1,1.391,1.391,0,0,1,1.3,1.6c-.1.8-.6,1.2-1.5,1.3a4.03,4.03,0,0,1-3-.6,2.153,2.153,0,0,0-1.1-.2,22.912,22.912,0,0,0-2.8.7A4.02,4.02,0,0,0,10.4,27a6.558,6.558,0,0,1-1.9,1.8,1.488,1.488,0,0,1-2.1-.5,1.4,1.4,0,0,1,.4-1.9c.7-.5,1.5-.9,2.3-1.4a2.585,2.585,0,0,0,1.2-1.1,32.508,32.508,0,0,0,1.8-4.3,2.079,2.079,0,0,0-.1-1.1c-.2-.7-.5-1.5-.7-2.2-.3-1.3.3-2.3,1.4-2.4s1.8.6,1.8,2.1v.3C14.6,16.3,14.2,17.7,14.1,18.4Zm.8,4.5c-.6-.7-1-1.2-1.5-1.8a26.043,26.043,0,0,0-1,2.5A18.243,18.243,0,0,1,14.9,22.9Z"/></svg>