<?xml version="1.0" encoding="utf-8"?>
<!-- Generator: Adobe Illustrator 23.0.2, SVG Export Plug-In . SVG Version: 6.00 Build 0)  -->
<svg version="1.1" id="Layer_1" xmlns="http://www.w3.org/2000/svg" xmlns:xlink="http://www.w3.org/1999/xlink" x="0px" y="0px"
	 viewBox="0 0 2195.7 278.8" style="enable-background:new 0 0 2195.7 278.8;" xml:space="preserve">
<style type="text/css">
	.st0{clip-path:url(#SVGID_2_);}
	.st1{fill:url(#SVGID_3_);}
	.st2{fill:url(#SVGID_4_);}
	.st3{fill:url(#SVGID_5_);}
	.st4{fill:url(#SVGID_6_);}
	.st5{fill:url(#SVGID_7_);}
	.st6{fill:url(#SVGID_8_);}
	.st7{fill:url(#SVGID_9_);}
	.st8{fill:url(#SVGID_10_);}
	.st9{fill:url(#SVGID_11_);}
	.st10{fill:url(#SVGID_12_);}
	.st11{fill:url(#SVGID_13_);}
	.st12{fill:url(#SVGID_14_);}
	.st13{fill:url(#SVGID_15_);}
	.st14{fill:url(#SVGID_16_);}
</style>
<g>
	<defs>
		<rect id="SVGID_1_" y="3.4" width="2195.7" height="275.4"/>
	</defs>
	<clipPath id="SVGID_2_">
		<use xlink:href="#SVGID_1_"  style="overflow:visible;"/>
	</clipPath>
	<g class="st0">
		<linearGradient id="SVGID_3_" gradientUnits="userSpaceOnUse" x1="1901.1577" y1="-416.3755" x2="1582.785" y2="-86.4574">
			<stop  offset="0" style="stop-color:#FFFFFF"/>
			<stop  offset="1" style="stop-color:#6A397D"/>
		</linearGradient>
		<polygon class="st1" points="1633.2,-156.6 1651.8,-124.3 1670.5,-156.6 1676.2,-166.5 1674.9,-166.5 1669.2,-156.6 
			1651.8,-126.5 1634.4,-156.6 1628.7,-166.5 1627.5,-166.5 1633.2,-156.6 		"/>
		<linearGradient id="SVGID_4_" gradientUnits="userSpaceOnUse" x1="2277.4216" y1="-677.5854" x2="1572.657" y2="52.7368">
			<stop  offset="0" style="stop-color:#FFFFFF"/>
			<stop  offset="1" style="stop-color:#6A397D"/>
		</linearGradient>
		<polygon class="st2" points="1756,-75 1682.9,-75 1729.4,-155.5 1738,-140.6 1756,-109.4 1756,-111.6 1738,-142.8 1730,-156.6 
			1735.7,-166.5 1734.5,-166.5 1729.4,-157.7 1724.3,-166.5 1723.1,-166.5 1728.8,-156.6 1681.5,-74.8 1681,-73.9 1756,-73.9 		"/>
		<linearGradient id="SVGID_5_" gradientUnits="userSpaceOnUse" x1="2327.0942" y1="-787.0232" x2="1042.5363" y2="544.1181">
			<stop  offset="0" style="stop-color:#FFFFFF"/>
			<stop  offset="1" style="stop-color:#6A397D"/>
		</linearGradient>
		<path class="st3" d="M1320.1,189.4l0.9-1.5v-2.2l-1.5,2.6l-1.5-2.6v2.2l0.9,1.5l-37,64h-95.5l10.4,18.1h1.3l-9.8-17h92.9l-9.8,17
			h1.3l9.8-17h38.5v0h35.5l9.8,17h1.3l-9.8-17h92.9l-9.8,17h1.3l10.4-18.1h-95.5L1320.1,189.4z M1321,253.5h-3h-34.8l36.3-62.9
			l36.3,62.9H1321z"/>
		<linearGradient id="SVGID_6_" gradientUnits="userSpaceOnUse" x1="1236.5391" y1="-416.3794" x2="918.1615" y2="-86.4563">
			<stop  offset="0" style="stop-color:#FFFFFF"/>
			<stop  offset="1" style="stop-color:#6A397D"/>
		</linearGradient>
		<polygon class="st4" points="987.2,-124.3 1005.8,-156.6 1005.8,-156.6 1011.5,-166.5 1010.3,-166.5 1004.6,-156.6 987.2,-126.5 
			969.8,-156.6 964.1,-166.5 962.9,-166.5 968.5,-156.6 		"/>
		<linearGradient id="SVGID_7_" gradientUnits="userSpaceOnUse" x1="1388.6305" y1="-594.8017" x2="785.6927" y2="30.001">
			<stop  offset="0" style="stop-color:#FFFFFF"/>
			<stop  offset="1" style="stop-color:#6A397D"/>
		</linearGradient>
		<polygon class="st5" points="957.5,-74.8 910.2,-156.6 915.9,-166.5 914.7,-166.5 909.6,-157.7 904.6,-166.5 903.3,-166.5 
			909,-156.6 901,-142.8 883,-111.6 883,-109.4 901,-140.6 909.6,-155.5 956.1,-75 883,-75 883,-73.9 958,-73.9 		"/>
		<linearGradient id="SVGID_8_" gradientUnits="userSpaceOnUse" x1="1028.1577" y1="-416.3755" x2="709.785" y2="-86.4574">
			<stop  offset="0" style="stop-color:#FFFFFF"/>
			<stop  offset="1" style="stop-color:#6A397D"/>
		</linearGradient>
		<polygon class="st6" points="778.8,-124.3 797.5,-156.6 803.2,-166.5 801.9,-166.5 796.2,-156.6 778.8,-126.5 761.4,-156.6 
			755.7,-166.5 754.5,-166.5 760.2,-156.6 		"/>
		<linearGradient id="SVGID_9_" gradientUnits="userSpaceOnUse" x1="1404.4215" y1="-677.5854" x2="699.657" y2="52.7368">
			<stop  offset="0" style="stop-color:#FFFFFF"/>
			<stop  offset="1" style="stop-color:#6A397D"/>
		</linearGradient>
		<polygon class="st7" points="883,-75 809.9,-75 856.4,-155.5 865,-140.6 883,-109.4 883,-111.6 865,-142.8 857,-156.6 
			862.7,-166.5 861.5,-166.5 856.4,-157.7 851.3,-166.5 850.1,-166.5 855.8,-156.6 808.5,-74.8 808,-73.9 883,-73.9 		"/>
		<linearGradient id="SVGID_10_" gradientUnits="userSpaceOnUse" x1="1463.608" y1="-798.4357" x2="165.0121" y2="547.2525">
			<stop  offset="0" style="stop-color:#FFFFFF"/>
			<stop  offset="1" style="stop-color:#6A397D"/>
		</linearGradient>
		<path class="st8" d="M445,185.7l-39.1,67.7h-95.5l10.4,18.1h1.3l-9.8-17h92.9l-9.8,17h1.3l9.8-17H445v0h38.5l9.8,17h1.3l-9.8-17
			h92.9l-9.8,17h1.3l10.4-18.1h-95.5L445,185.7z M445,253.5L445,253.5h-37.8l37.8-65.5l37.8,65.5H445z"/>
		<linearGradient id="SVGID_11_" gradientUnits="userSpaceOnUse" x1="2109.5396" y1="-416.3799" x2="1791.1614" y2="-86.4562">
			<stop  offset="0" style="stop-color:#FFFFFF"/>
			<stop  offset="1" style="stop-color:#6A397D"/>
		</linearGradient>
		<polygon class="st9" points="1860.2,-124.3 1878.8,-156.6 1878.8,-156.6 1884.5,-166.5 1883.3,-166.5 1877.6,-156.6 
			1860.2,-126.5 1842.8,-156.6 1837.1,-166.5 1835.9,-166.5 1841.5,-156.6 		"/>
		<linearGradient id="SVGID_12_" gradientUnits="userSpaceOnUse" x1="10648.7529" y1="-9828.5225" x2="-1515.4578" y2="2776.8115">
			<stop  offset="0" style="stop-color:#FFFFFF"/>
			<stop  offset="1" style="stop-color:#6A397D"/>
		</linearGradient>
		<path class="st10" d="M2194-142.8L2154.9-75h-95.5l18,31.2H2023l18-31.2l47.1-81.6l0.3-0.5h-96.7l0.3,0.5l47.1,81.6h-93.6
			l-47.1-81.6l5.7-9.9h-1.3l-5.1,8.8l-5.1-8.8h-1.3l5.7,9.9l-47.7,82.7h95.5L1992,7.6l-47.1,81.6h-95.5l0.5,0.8l17.5,30.4H1813
			l18-31.2l47.4-82.1h-96.7l0.5,0.8l46.9,81.3H1756h-73.1l46.9-81.3l0.5-0.8h-96.7l47.4,82.1l18,31.2h-54.5l17.5-30.4l0.5-0.8h-95.5
			L1520,7.6l47.1-81.6h95.5l-47.7-82.7l5.7-9.9h-1.3l-5.1,8.8l-5.1-8.8h-1.3l5.7,9.9L1566.5-75h-93.6l47.1-81.6l0.3-0.5h-96.7
			l0.3,0.5L1471-75l18,31.2h-54.5l18-31.2h-95.5l-37-64l0.9-1.5v-2.2l-1.5,2.6l-1.5-2.6v2.2l0.9,1.5l-37,64h-95.5l18,31.2H1150
			l18-31.2l47.1-81.6l0.3-0.5h-96.7l0.3,0.5l47.1,81.6h-93.6l-47.1-81.6l5.7-9.9h-1.3l-5.1,8.8l-5.1-8.8h-1.3l5.7,9.9l-47.7,82.7
			h95.5L1119,7.6l-47.1,81.6h-95.5l0.5,0.8l17.5,30.4H940l18-31.2l47.4-82.1h-96.7l0.5,0.8l46.9,81.3H883h-73.1l46.9-81.3l0.5-0.8
			h-96.7L808,89.2l18,31.2h-54.5L789.1,90l0.5-0.8h-95.5L647,7.6l47.1-81.6h95.5l-47.7-82.7l5.7-9.9h-1.3l-5.1,8.8l-5.1-8.8h-1.3
			l5.7,9.9L693.5-75h-93.6l47.1-81.6l0.3-0.5h-96.7l0.3,0.5L598-75l18,31.2h-54.5l18-31.2h-95.5L445-142.8L405.9-75h-95.5l18,31.2
			H274L292-75l47.1-81.6l0.3-0.5h-96.7l0.3,0.5L290.1-75h-93.6l-47.1-81.6l5.7-9.9h-1.3l-5.1,8.8l-5.1-8.8h-1.3l5.7,9.9l-47.7,82.7
			h95.5L243,7.6l-47.1,81.6h-95.5l0.5,0.8l17.5,30.4H64l18-31.2l47.4-82.1H32.7l0.5,0.8l46.9,81.3H7v1.1h73.1l-46.5,80.5L25,155.9
			L7,124.7v2.2l18,31.2l8,13.8l-8,13.8L7,216.9v2.2l18-31.1l8.6-14.9l46.5,80.5H7v1.1h75l-0.5-0.8l-47.3-81.9l29.2-50.5l29.2,50.5
			l18.6,32.3l18.6-32.3L139,156l9.2,15.9l-47.7,82.7h95.5l9.8,17h1.3l-9.8-17h92.9l-9.8,17h1.3l10.4-18.1l47.1-81.6l0.3-0.5h-96.7
			l0.3,0.5l47.1,81.6h-93.6l-47.1-81.6l47.1-81.6H292L244.3,7.7l29.2-50.5l47.8,82.8L349-8.2l9.2,15.9l-47.7,82.7h95.5L445,158
			l39.1-67.7h95.5L531.8,7.6L541-8.2l27.8,48.2l47.8-82.8l29.2,50.5L598,90.3h95.5l47.1,81.6l-47.1,81.6h-93.6l47.1-81.6l0.3-0.5
			h-96.7l0.3,0.5l47.1,81.6l10.4,18.1h1.3l-9.8-17h92.9l-9.8,17h1.3l9.8-17h95.5l-47.7-82.7L751,156l9.2,15.9l18.6,32.3l18.6-32.3
			l29.1-50.5l29.2,50.5l-47.3,81.8l-0.5,0.8h75h75l-0.5-0.8l-47.3-81.9l29.2-50.5l29.2,50.5l18.6,32.3l18.6-32.3l9.2-15.9l9.2,15.9
			l-47.7,82.7h95.5l9.8,17h1.3l-9.8-17h92.9l-9.8,17h1.3l10.4-18.1l47.1-81.6l0.3-0.5h-96.7l0.3,0.5l47.1,81.6h-93.6l-47.1-81.6
			l47.1-81.6h95.5l-47.7-82.7l29.2-50.5l47.8,82.8L1225-8.2l9.2,15.9l-47.7,82.7h95.5l37,64l-0.9,1.5v2.2l1.5-2.6l1.5,2.6v-2.2
			l-0.9-1.5l37-64h95.5l-47.7-82.7l9.2-15.9l27.8,48.2l47.8-82.8l29.2,50.5L1471,90.3h95.5l47.1,81.6l-47.1,81.6h-93.6l47.1-81.6
			l0.3-0.5h-96.7l0.3,0.5l47.1,81.6l10.4,18.1h1.3l-9.8-17h92.9l-9.8,17h1.3l9.8-17h95.5l-47.7-82.7l9.2-15.9l9.2,15.9l18.6,32.3
			l18.6-32.3l29.1-50.5l29.2,50.5l-47.3,81.8l-0.5,0.8h75h75l-0.5-0.8l-47.3-81.9l29.2-50.5l29.1,50.5l18.6,32.3l18.6-32.3l9.2-15.9
			l9.2,15.9l-47.7,82.7h95.5l9.8,17h1.3l-9.8-17h92.9l-9.8,17h1.3l10.4-18.1l47.1-81.6l0.3-0.5h-96.7l0.3,0.5l47.1,81.6h-93.6
			l-47.1-81.6l47.1-81.6h95.5l-47.7-82.7l29.2-50.5l47.8,82.8L2098-8.2l9.2,15.9l-47.7,82.7h95.5L2194,158v-2.2l-37.8-65.5h37.8
			v-1.1h-38.5l-47.1-81.6l47.1-81.6h38.5V-75h-37.8l37.8-65.5V-142.8z M1851.3-75l46.5-80.5l46.5,80.5H1851.3z M1614.2-155.5
			l46.5,80.5h-92.9L1614.2-155.5z M978.3-75l46.5-80.5l46.5,80.5H978.3z M741.2-155.5L787.7-75h-92.9L741.2-155.5z M102.3-75
			l46.5-80.5L195.3-75H102.3z M34.6,8.2h92.9L81,88.7L34.6,8.2z M244.6,172.4h92.9L291,252.9L244.6,172.4z M128.6,171.9L111.2,202
			l-17.4-30.1l-29.1-50.4h54.3l19.3,33.4L128.6,171.9z M120.3,121.5h37.3L139,153.8L120.3,121.5z M195.3,253.5h-92.9l46.5-80.5
			L195.3,253.5z M148.8,170.8l-9.2-15.9l19.9-34.5h-39.9l-17.4-30.1h92.9L148.8,170.8z M244.6-156.1h92.9L291-75.6L244.6-156.1z
			 M290.1,89.2h-92.9l46.5-80.5L290.1,89.2z M243.6,6.6l-46.5-80.5h92.9L243.6,6.6z M445-140.6L482.8-75H445h-37.8L445-140.6z
			 M321.2,37.8l-46.5-80.5h54.3l19.3,33.4L321.2,37.8z M330.3-42.7h37.3L349-10.4L330.3-42.7z M349.6-9.3l19.9-34.5h-39.9
			l-17.4-30.1h92.9L358.8,6.6L349.6-9.3z M312.3,89.2l46.5-80.5l46.5,80.5H312.3z M445,155.9l-37.8-65.5H445h37.8L445,155.9z
			 M483.5,89.2H445h-38.5L359.4,7.6l47.1-81.6H445h38.5l47.1,81.6L483.5,89.2z M577.7,89.2h-92.9l46.5-80.5L577.7,89.2z M531.2,6.6
			l-46.5-80.5h92.9l-17.4,30.1h-39.9l19.9,34.5L531.2,6.6z M522.3-42.7h37.3L541-10.4L522.3-42.7z M568.8,37.8L541.6-9.3l19.3-33.4
			h54.3L568.8,37.8z M552.5-156.1h92.9L599-75.6L552.5-156.1z M599.9-73.9h92.9L646.4,6.6L599.9-73.9z M599.9,89.2l46.5-80.5
			l46.5,80.5L599.9,89.2z M599,252.9l-46.5-80.5h92.9L599,252.9z M787.7,253.5h-92.9l46.5-80.5L787.7,253.5z M741.2,170.8
			l-46.5-80.5h92.9l-17.4,30.1h-39.9l19.9,34.5L741.2,170.8z M751,153.8l-18.7-32.3h37.3L751,153.8z M796.2,171.9L778.8,202
			l-17.4-30.1l-9.8-17l19.3-33.4h54.3L796.2,171.9z M1003.5,8.2L957,88.7L910.6,8.2H1003.5z M762.5,8.2h92.9L809,88.7L762.5,8.2z
			 M956.1,253.5H883h-73.1l46.5-80.5l8.6,14.9l18,31.2l18-31.1l8.6-14.9L956.1,253.5z M857,171.9l8-13.8l18-31.2l18,31.2l8,13.8
			l-8,13.8l-18,31.1l-18-31.1L857,171.9z M909.6,170.8l-8.6-14.9l-18-31.1l-18,31.1l-8.6,14.9l-46.5-80.5H883h73.1L909.6,170.8z
			 M1120.6,172.4h92.9l-46.5,80.5L1120.6,172.4z M1004.6,171.9L987.2,202l-17.4-30.1l-29.1-50.4h54.3l19.3,33.4L1004.6,171.9z
			 M996.3,121.5h37.3l-18.7,32.3L996.3,121.5z M1071.3,253.5h-92.9l46.5-80.5L1071.3,253.5z M1024.8,170.8l-9.2-15.9l19.9-34.5
			h-39.9l-17.4-30.1h92.9L1024.8,170.8z M1120.6-156.1h92.9L1167-75.6L1120.6-156.1z M1166.1,89.2h-92.9l46.5-80.5L1166.1,89.2z
			 M1119.6,6.6l-46.5-80.5h92.9L1119.6,6.6z M1319.5-138l36.3,62.9H1321h-3h-34.8L1319.5-138z M1197.2,37.8l-46.5-80.5h54.3
			l19.3,33.4L1197.2,37.8z M1206.3-42.7h37.3L1225-10.4L1206.3-42.7z M1225.6-9.3l19.9-34.5h-39.9l-17.4-30.1h92.9l-46.5,80.5
			L1225.6-9.3z M1188.3,89.2l46.5-80.5l46.5,80.5H1188.3z M1319.5,153.3l-36.3-62.9h34.8h3h34.8L1319.5,153.3z M1356.5,89.2H1321h-3
			h-35.5l-47.1-81.6l47.1-81.6h35.5h3h35.5l47.1,81.6L1356.5,89.2z M1450.7,89.2h-92.9l46.5-80.5L1450.7,89.2z M1404.2,6.6
			l-46.5-80.5h92.9l-17.4,30.1h-39.9l19.9,34.5L1404.2,6.6z M1395.3-42.7h37.3L1414-10.4L1395.3-42.7z M1441.8,37.8l-27.2-47.1
			l19.3-33.4h54.3L1441.8,37.8z M1425.5-156.1h92.9L1472-75.6L1425.5-156.1z M1472.9-73.9h92.9l-46.5,80.5L1472.9-73.9z
			 M1472.9,89.2l46.5-80.5l46.5,80.5L1472.9,89.2z M1472,252.9l-46.5-80.5h92.9L1472,252.9z M1660.7,253.5h-92.9l46.5-80.5
			L1660.7,253.5z M1614.2,170.8l-46.5-80.5h92.9l-17.4,30.1h-39.9l19.9,34.5L1614.2,170.8z M1624,153.8l-18.7-32.3h37.3L1624,153.8z
			 M1669.2,171.9l-17.4,30.1l-17.4-30.1l-9.8-17l19.3-33.4h54.3L1669.2,171.9z M1876.5,8.2L1830,88.7l-46.5-80.5H1876.5z
			 M1635.5,8.2h92.9L1682,88.7L1635.5,8.2z M1829.1,253.5H1756h-73.1l46.5-80.5l8.6,14.9l18,31.2l18-31.1l8.6-14.9L1829.1,253.5z
			 M1730,171.9l8-13.8l18-31.2l18,31.2l8,13.8l-8,13.8l-18,31.1l-18-31.1L1730,171.9z M1782.6,170.8l-8.6-14.9l-18-31.1l-18,31.1
			l-8.6,14.9l-46.5-80.5h73.1h73.1L1782.6,170.8z M1993.6,172.4h92.9l-46.5,80.5L1993.6,172.4z M1877.6,171.9l-17.4,30.1l-17.4-30.1
			l-29.1-50.4h54.3l19.3,33.4L1877.6,171.9z M1869.3,121.5h37.3l-18.7,32.3L1869.3,121.5z M1944.3,253.5h-92.9l46.5-80.5
			L1944.3,253.5z M1897.8,170.8l-9.2-15.9l19.9-34.5h-39.9l-17.4-30.1h92.9L1897.8,170.8z M1993.6-156.1h92.9L2040-75.6
			L1993.6-156.1z M2039.1,89.2h-92.9l46.5-80.5L2039.1,89.2z M1992.6,6.6l-46.5-80.5h92.9L1992.6,6.6z M2070.2,37.8l-46.5-80.5h54.3
			l19.3,33.4L2070.2,37.8z M2079.3-42.7h37.3L2098-10.4L2079.3-42.7z M2154.3,89.2h-92.9l46.5-80.5L2154.3,89.2z M2107.8,6.6
			l-9.2-15.9l19.9-34.5h-39.9l-17.4-30.1h92.9L2107.8,6.6z"/>
		<linearGradient id="SVGID_13_" gradientUnits="userSpaceOnUse" x1="2261.6304" y1="-594.8017" x2="1658.6927" y2="30.001">
			<stop  offset="0" style="stop-color:#FFFFFF"/>
			<stop  offset="1" style="stop-color:#6A397D"/>
		</linearGradient>
		<polygon class="st11" points="1830.5,-74.8 1783.2,-156.6 1788.9,-166.5 1787.7,-166.5 1782.6,-157.7 1777.6,-166.5 
			1776.3,-166.5 1782,-156.6 1774,-142.8 1756,-111.6 1756,-109.4 1774,-140.6 1782.6,-155.5 1829.1,-75 1756,-75 1756,-73.9 
			1831,-73.9 		"/>
		<linearGradient id="SVGID_14_" gradientUnits="userSpaceOnUse" x1="2924.3193" y1="-572.4988" x2="1927.0347" y2="460.9513">
			<stop  offset="0" style="stop-color:#FFFFFF"/>
			<stop  offset="1" style="stop-color:#6A397D"/>
		</linearGradient>
		<polygon class="st12" points="2194,187.9 2194,185.7 2154.9,253.5 2059.4,253.5 2069.9,271.5 2071.1,271.5 2061.3,254.6 
			2154.3,254.6 2144.5,271.5 2145.7,271.5 2155.5,254.6 2194,254.6 2194,253.5 2156.2,253.5 		"/>
		<linearGradient id="SVGID_15_" gradientUnits="userSpaceOnUse" x1="360.539" y1="-416.3794" x2="42.1615" y2="-86.4563">
			<stop  offset="0" style="stop-color:#FFFFFF"/>
			<stop  offset="1" style="stop-color:#6A397D"/>
		</linearGradient>
		<polygon class="st13" points="111.2,-124.3 129.8,-156.6 129.8,-156.6 135.5,-166.5 134.3,-166.5 128.6,-156.6 111.2,-126.5 
			93.8,-156.6 88.1,-166.5 86.9,-166.5 92.5,-156.6 		"/>
		<linearGradient id="SVGID_16_" gradientUnits="userSpaceOnUse" x1="512.6305" y1="-594.8017" x2="-90.3072" y2="30.001">
			<stop  offset="0" style="stop-color:#FFFFFF"/>
			<stop  offset="1" style="stop-color:#6A397D"/>
		</linearGradient>
		<polygon class="st14" points="81.5,-74.8 34.2,-156.6 39.9,-166.5 38.7,-166.5 33.6,-157.7 28.6,-166.5 27.3,-166.5 33,-156.6 
			25,-142.8 7,-111.6 7,-109.4 25,-140.6 33.6,-155.5 80.1,-75 7,-75 7,-73.9 82,-73.9 		"/>
	</g>
</g>
</svg>
