<?xml version="1.0" encoding="utf-8"?>
<!-- Generator: Adobe Illustrator 23.0.2, SVG Export Plug-In . SVG Version: 6.00 Build 0)  -->
<svg version="1.1" id="Layer_1" xmlns="http://www.w3.org/2000/svg" xmlns:xlink="http://www.w3.org/1999/xlink" x="0px" y="0px"
	 viewBox="0 0 876 438" style="enable-background:new 0 0 876 438;" xml:space="preserve">
<style type="text/css">
	.st0{fill:url(#SVGID_1_);}
	.st1{fill:url(#SVGID_2_);}
	.st2{fill:url(#SVGID_3_);}
	.st3{fill:url(#SVGID_4_);}
	.st4{fill:url(#SVGID_5_);}
	.st5{fill:url(#SVGID_6_);}
	.st6{fill:url(#SVGID_7_);}
</style>
<g>
	<linearGradient id="SVGID_1_" gradientUnits="userSpaceOnUse" x1="583.1527" y1="-249.9171" x2="264.7801" y2="80.001">
		<stop  offset="0" style="stop-color:#FFFFFF"/>
		<stop  offset="1" style="stop-color:#6A397D"/>
	</linearGradient>
	<polygon class="st0" points="315.2,9.9 333.8,42.1 352.5,9.9 358.1,0 356.9,0 351.2,9.9 333.8,40 316.4,9.9 310.7,0 309.5,0 
		315.2,9.9 	"/>
	<linearGradient id="SVGID_2_" gradientUnits="userSpaceOnUse" x1="959.4166" y1="-511.127" x2="254.652" y2="219.1952">
		<stop  offset="0" style="stop-color:#FFFFFF"/>
		<stop  offset="1" style="stop-color:#6A397D"/>
	</linearGradient>
	<polygon class="st1" points="438,91.4 364.9,91.4 411.4,11 420,25.9 438,57 438,54.8 420,23.7 412,9.9 417.7,0 416.4,0 411.4,8.8 
		406.3,0 405.1,0 410.8,9.9 363.5,91.7 363,92.5 438,92.5 	"/>
	<linearGradient id="SVGID_3_" gradientUnits="userSpaceOnUse" x1="550.2379" y1="-110.7709" x2="-84.9666" y2="547.4686">
		<stop  offset="0" style="stop-color:#FFFFFF"/>
		<stop  offset="1" style="stop-color:#6A397D"/>
	</linearGradient>
	<polygon class="st2" points="0,352.2 0,354.4 37.8,419.9 0,419.9 0,421 38.5,421 48.3,438 49.5,438 39.7,421 132.7,421 122.9,438 
		124.1,438 134.6,419.9 39.1,419.9 	"/>
	<linearGradient id="SVGID_4_" gradientUnits="userSpaceOnUse" x1="791.5341" y1="-249.9211" x2="473.1566" y2="80.0021">
		<stop  offset="0" style="stop-color:#FFFFFF"/>
		<stop  offset="1" style="stop-color:#6A397D"/>
	</linearGradient>
	<polygon class="st3" points="542.2,42.1 560.8,9.9 560.8,9.9 566.5,0 565.3,0 559.6,9.9 542.2,40 524.8,9.9 519.1,0 517.9,0 
		523.5,9.9 	"/>
	<linearGradient id="SVGID_5_" gradientUnits="userSpaceOnUse" x1="4799.5903" y1="-4345.6558" x2="-759.8904" y2="1415.4343">
		<stop  offset="0" style="stop-color:#FFFFFF"/>
		<stop  offset="1" style="stop-color:#6A397D"/>
	</linearGradient>
	<path class="st4" d="M876,23.7l-39.1,67.7h-95.5l18,31.2H705l18-31.2l47.1-81.6l0.3-0.5h-96.7l0.3,0.5l47.1,81.6h-93.6L580.4,9.9
		l5.7-9.9h-1.3l-5.1,8.8L574.7,0h0h-1.3h0l5.7,9.9l-47.7,82.7h95.5l47.1,81.6l-47.1,81.6h-95.5l0.5,0.8l17.5,30.4H495l18-31.2
		l47.4-82.1h-96.7l0.5,0.8l46.9,81.3H438h-73.1l46.9-81.3l0.5-0.8h-96.7l47.4,82.1l18,31.2h-54.5l17.5-30.4l0.5-0.8h-95.5L202,174.1
		l47.1-81.6h95.5L296.8,9.9l5.7-9.9h-1.3l-5.1,8.8L291.2,0h-1.3l5.7,9.9l-47.1,81.6h-93.6L202,9.9l0.3-0.5h-96.7l0.3,0.5L153,91.4
		l18,31.2h-54.5l18-31.2H39.1L0,23.7v2.2l37.8,65.5H0v1.1h38.5l47.1,81.6l-47.1,81.6H0v1.1h37.8L0,322.3v2.2l39.1-67.7h95.5
		l-47.7-82.7l9.2-15.9l27.8,48.2l47.8-82.8l29.2,50.5L153,256.8h95.5l47.1,81.6l-47.1,81.6h-93.6l47.1-81.6l0.3-0.5h-96.7l0.3,0.5
		l47.1,81.6l10.4,18.1h1.3l-9.8-17h92.9l-9.8,17h1.3l9.8-17h95.5l-47.7-82.7l9.2-15.9l9.2,15.9l18.6,32.3l18.6-32.3l29.1-50.5
		l29.2,50.5l-47.3,81.8L363,421h75h75l-0.5-0.8l-47.3-81.9l29.2-50.5l29.2,50.5l18.6,32.3l18.6-32.3l9.2-15.9l9.2,15.9L531.4,421
		h95.5l9.8,17h1.3l-9.8-17h92.9l-9.8,17h1.3l10.4-18.1l47.1-81.6l0.3-0.5h-96.7l0.3,0.5l47.1,81.6h-93.6l-47.1-81.6l47.1-81.6H723
		l-47.7-82.7l29.2-50.5l47.8,82.8l27.8-48.2l9.2,15.9l-47.7,82.7h95.5l39.1,67.7v-2.2l-37.8-65.5H876v-1.1h-38.5l-47.1-81.6
		l47.1-81.6H876v-1.1h-37.8L876,25.9V23.7z M533.3,91.4L579.8,11l46.5,80.5H533.3z M296.2,11l46.5,80.5h-92.9L296.2,11z
		 M132.7,255.7H39.7l46.5-80.5L132.7,255.7z M86.2,173L39.7,92.5h92.9l-17.4,30.1H75.4l19.9,34.5L86.2,173z M77.3,123.7h37.3L96,156
		L77.3,123.7z M123.8,204.2l-27.2-47.1l19.3-33.4h54.3L123.8,204.2z M107.5,10.4h92.9L154,90.9L107.5,10.4z M154.9,92.5h92.9
		L201.4,173L154.9,92.5z M154.9,255.7l46.5-80.5l46.5,80.5L154.9,255.7z M154,419.4l-46.5-80.5h92.9L154,419.4z M342.7,419.9h-92.9
		l46.5-80.5L342.7,419.9z M296.2,337.3l-46.5-80.5h92.9l-17.4,30.1h-39.9l19.9,34.5L296.2,337.3z M306,320.3L287.3,288h37.3
		L306,320.3z M351.2,338.4l-17.4,30.1l-17.4-30.1l-9.8-17l19.3-33.4h54.3L351.2,338.4z M558.5,174.7L512,255.1l-46.5-80.5H558.5z
		 M317.5,174.7h92.9L364,255.1L317.5,174.7z M364.9,419.9l46.5-80.5l8.6,14.9l18,31.2l18-31.1l8.6-14.9l46.5,80.5H438v0H364.9z
		 M412,338.4l8-13.8l18-31.2l18,31.2l8,13.8l-8,13.8l-18,31.1l-18-31.1L412,338.4z M464.6,337.3l-8.6-14.9l-18-31.1l-18,31.1
		l-8.6,14.9l-46.5-80.5H438h73.1L464.6,337.3z M675.6,338.9h92.9L722,419.4L675.6,338.9z M559.6,338.4l-17.4,30.1l-17.4-30.1
		L495.7,288h54.3l19.3,33.4L559.6,338.4z M551.3,288h37.3L570,320.3L551.3,288z M626.3,419.9h-92.9l46.5-80.5L626.3,419.9z
		 M579.8,337.3l-9.2-15.9l19.9-34.5h-39.9l-17.4-30.1h92.9L579.8,337.3z M675.6,10.4h92.9L722,90.9L675.6,10.4z M721.1,255.7h-92.9
		l46.5-80.5L721.1,255.7z M674.6,173l-46.5-80.5h92.9L674.6,173z M752.2,204.2l-46.5-80.5h54.3l19.3,33.4L752.2,204.2z M761.3,123.7
		h37.3L780,156L761.3,123.7z M836.3,255.7h-92.9l46.5-80.5L836.3,255.7z M789.8,173l-9.2-15.9l19.9-34.5h-39.9l-17.4-30.1h92.9
		L789.8,173z"/>
	<linearGradient id="SVGID_6_" gradientUnits="userSpaceOnUse" x1="943.6255" y1="-428.3433" x2="340.6878" y2="196.4594">
		<stop  offset="0" style="stop-color:#FFFFFF"/>
		<stop  offset="1" style="stop-color:#6A397D"/>
	</linearGradient>
	<polygon class="st5" points="512.5,91.7 465.2,9.9 470.9,0 469.7,0 464.6,8.8 459.6,0 458.3,0 464,9.9 456,23.7 438,54.8 438,57 
		456,25.9 464.6,11 511.1,91.4 438,91.4 438,92.5 513,92.5 	"/>
	<linearGradient id="SVGID_7_" gradientUnits="userSpaceOnUse" x1="1606.3145" y1="-406.0407" x2="609.0296" y2="627.4098">
		<stop  offset="0" style="stop-color:#FFFFFF"/>
		<stop  offset="1" style="stop-color:#6A397D"/>
	</linearGradient>
	<polygon class="st6" points="876,354.4 876,352.2 836.9,419.9 741.4,419.9 751.9,438 753.1,438 743.3,421 836.3,421 826.5,438 
		827.7,438 837.5,421 876,421 876,419.9 838.2,419.9 	"/>
</g>
</svg>
