<svg xmlns="http://www.w3.org/2000/svg" width="33.604" height="34.816" viewBox="0 0 33.604 34.816"><defs><style>.a{fill:#fff;}</style></defs><path class="a" d="M23.45,16.958a8.1,8.1,0,1,1-2.343-2.229.5.5,0,0,1-.534.85,7.125,7.125,0,1,0,2.375,2.466l-6.51,6.516a.515.515,0,0,1-.71,0l-3.02-3.023a.5.5,0,1,1,.71-.71l2.665,2.665,6.6-6.6a.491.491,0,0,1,.4-.147A.515.515,0,0,1,23.45,16.958ZM33.6,5.023V29.37a3.025,3.025,0,0,1-1.038,2.273v.282a2.893,2.893,0,0,1-2.891,2.891H3.929a2.893,2.893,0,0,1-2.891-2.891v-.282A3.025,3.025,0,0,1,0,29.37V5.023A3.049,3.049,0,0,1,3.044,1.979H6.108V1.932a1.932,1.932,0,0,1,3.865,0v.047H23.626V1.932a1.932,1.932,0,0,1,3.865,0v.047h3.064A3.05,3.05,0,0,1,33.6,5.023ZM24.969,4.6a.592.592,0,0,0,1.185,0V1.932a.592.592,0,0,0-1.185,0ZM7.451,4.6a.592.592,0,0,0,1.185,0V1.932a.592.592,0,0,0-1.185,0V4.6ZM1.34,5.023v5.765H32.264V5.023a1.707,1.707,0,0,0-1.7-1.7H27.494V4.6a1.932,1.932,0,0,1-3.865,0V3.319H9.976V4.6a1.932,1.932,0,0,1-3.865,0V3.319H3.044A1.707,1.707,0,0,0,1.34,5.023ZM32.264,29.37V12.128H1.34V29.37a1.708,1.708,0,0,0,1.7,1.707H30.558A1.708,1.708,0,0,0,32.264,29.37Zm-1.126,2.988a3.137,3.137,0,0,1-.578.059H3.044a3.112,3.112,0,0,1-.578-.059,1.534,1.534,0,0,0,1.463,1.12H29.675A1.534,1.534,0,0,0,31.138,32.358Z"/></svg>