<svg xmlns="http://www.w3.org/2000/svg" width="26.504" height="30.263" viewBox="0 0 26.504 30.263"><defs><style>.a{opacity:0.879;}.b{fill:#fff;}</style></defs><g class="a"><path class="b" d="M20.806,26.48a1.9,1.9,0,0,1-1.891,1.891H3.783A1.9,1.9,0,0,1,1.891,26.48V3.783A1.9,1.9,0,0,1,3.783,1.891h9.776a1.878,1.878,0,0,1,1.336.556L20.25,7.8a1.878,1.878,0,0,1,.556,1.336V12.46L22.7,10.568V9.138a3.776,3.776,0,0,0-1.111-2.672L16.243,1.111A3.776,3.776,0,0,0,13.571,0H3.783A3.779,3.779,0,0,0,0,3.783v22.7a3.779,3.779,0,0,0,3.783,3.783H18.914A3.779,3.779,0,0,0,22.7,26.48V15.912L20.806,17.8Z"/><path class="b" d="M128,91.172l2.01-.674,9.363-9.363L138.036,79.8l-9.363,9.363Z" transform="translate(-112.868 -70.366)"/><rect class="b" width="9.457" height="0.946" transform="translate(3.783 11.349)"/><rect class="b" width="9.457" height="0.946" transform="translate(3.783 14.186)"/><rect class="b" width="9.457" height="0.946" transform="translate(3.783 17.023)"/><rect class="b" width="9.457" height="0.946" transform="translate(3.783 19.86)"/><rect class="b" width="9.457" height="0.946" transform="translate(3.783 22.697)"/></g></svg>