<svg xmlns="http://www.w3.org/2000/svg" width="26.885" height="30.699" viewBox="0 0 26.885 30.699"><defs><style>.a{fill:#fff;}</style></defs><path class="a" d="M21.105,26.861a1.924,1.924,0,0,1-1.919,1.919H3.837a1.924,1.924,0,0,1-1.919-1.919V3.837A1.924,1.924,0,0,1,3.837,1.919h9.917a1.9,1.9,0,0,1,1.355.564l5.432,5.432a1.9,1.9,0,0,1,.564,1.355v3.37l1.919-1.919V9.27A3.83,3.83,0,0,0,21.9,6.559l-5.42-5.432A3.83,3.83,0,0,0,13.766,0H3.837A3.833,3.833,0,0,0,0,3.837V26.861A3.833,3.833,0,0,0,3.837,30.7H19.187a3.833,3.833,0,0,0,3.837-3.837V16.141l-1.919,1.919Z"/><path class="a" d="M128,91.336l2.039-.684,9.5-9.5L138.181,79.8l-9.5,9.5Z" transform="translate(-112.651 -70.231)"/><rect class="a" width="9.593" height="0.959" transform="translate(3.837 11.512)"/><rect class="a" width="9.593" height="0.959" transform="translate(3.837 14.39)"/><rect class="a" width="9.593" height="0.959" transform="translate(3.837 17.268)"/><rect class="a" width="9.593" height="0.959" transform="translate(3.837 20.146)"/><rect class="a" width="9.593" height="0.959" transform="translate(3.837 23.024)"/></svg>