<svg xmlns="http://www.w3.org/2000/svg" xmlns:xlink="http://www.w3.org/1999/xlink" width="438" height="438" viewBox="0 0 438 438"><defs><style>.a{fill:url(#a);}</style><linearGradient id="a" x1="2.912" y1="5.915" x2="-1.831" y2="1" gradientUnits="objectBoundingBox"><stop offset="0" stop-color="#fff"/><stop offset="1" stop-color="#69397c"/></linearGradient></defs><path class="a" d="M325.607,9.855,306.961,42.15,288.316,9.855h0L282.626,0h1.264l5.69,9.855h0l17.381,30.1,17.381-30.1h0L330.032,0H331.3l-5.69,9.855Z" transform="translate(-202.772)"/><path class="a" d="M73.074,255.683l-46.94-81.3-.474-.821h96.727L74.97,255.683h0l-18.014,31.2h54.475L93.9,256.5l-.475-.821h95.462l47.1-81.581-47.1-81.574H93.422L141.153,9.855h0L135.464,0h1.265l5.057,8.76L146.843,0h1.265l-5.69,9.855h0l47.1,81.578h93.566l-47.1-81.578-.315-.548h96.727l-.316.548-47.1,81.578h0l-18.013,31.2h54.474l-18.013-31.2h95.461L438,23.7v2.19L400.157,91.433H438v1.095H399.525l-47.1,81.577,47.1,81.578H438v1.1H400.161L438,322.317v2.19l-39.1-67.729H303.431L351.162,174.1,342,158.24,314.2,206.4l-47.8-82.784-29.152,50.493,47.73,82.669H189.517l-47.1,81.578h0l47.1,81.577h93.566l-47.1-81.577-.315-.548h96.727l-.316.548-47.1,81.577h0L274.552,438h-1.265l9.8-16.972H190.152l9.8,16.972h-1.265l-9.8-16.972H93.422l47.731-82.672h0l-9.16-15.864-9.159,15.864h0L104.188,370.65,85.544,338.355h0l-29.15-50.49-29.151,50.49v0L74.5,420.206l.475.821H0v-1.1H73.073L26.607,339.45l-8.624,14.937h0L0,385.534v-2.19L17.983,352.2h0l7.992-13.842v0l-7.993-13.845h0L0,293.358v-2.19l17.983,31.148h0l8.628,14.943,46.466-80.483H0v-1.1H73.074ZM141.785,10.95,95.32,91.433h92.933ZM305.328,255.683H398.26L351.794,175.2Zm46.466-82.673L398.26,92.528H305.328l17.381,30.1H362.56l-19.926,34.512Zm8.869-49.283H323.34L342,156.05ZM314.2,204.21l27.171-47.065-19.294-33.417H267.731ZM330.5,10.4H237.564l46.467,80.483ZM283.085,92.528H190.152L236.62,173.01Zm0,163.155L236.615,175.2l-46.466,80.483Zm.948,163.7L330.5,338.9H237.564Zm-188.711.547h92.933L141.785,339.45Zm46.465-82.672,46.467-80.483H95.32l17.381,30.1h39.851L132.626,321.4Zm8.871-49.283H113.332L131.993,320.3ZM86.807,338.355h0l17.38,30.1,17.382-30.1h0l9.791-16.959-19.293-33.418H57.723Zm-12.785-83.22,46.466-80.482H27.556Z" transform="translate(0)"/><path class="a" d="M349.517,25.887h0L331.534,57.035v-2.19L349.517,23.7h0l7.992-13.842,0,0L351.823,0h1.264l5.058,8.76L363.2,0h1.264l-5.69,9.855,0,0,47.254,81.848.475.821h-74.97V91.433h73.073L358.141,10.95Z" transform="translate(-331.534)"/><path class="a" d="M134.569,321.641v2.19L96.727,389.377h37.843v1.1H96.095l-9.8,16.972H85.031l9.8-16.972H1.9l9.8,16.972H10.431L0,389.377H95.462Z" transform="translate(303.431 30.556)"/></svg>