<svg xmlns="http://www.w3.org/2000/svg" xmlns:xlink="http://www.w3.org/1999/xlink" width="438" height="438" viewBox="0 0 438 438"><defs><style>.a{fill:url(#a);}</style><linearGradient id="a" x1="-1.912" y1="5.915" x2="2.831" y2="1" gradientUnits="objectBoundingBox"><stop offset="0" stop-color="#fff"/><stop offset="1" stop-color="#69397c"/></linearGradient></defs><path class="a" d="M288.316,9.855,306.962,42.15,325.607,9.855h0L331.3,0h-1.264l-5.69,9.855h0l-17.381,30.1-17.381-30.1h0L283.891,0h-1.265l5.69,9.855Z" transform="translate(26.849)"/><path class="a" d="M364.926,255.683l46.94-81.3.474-.821H315.614l47.416,82.125h0l18.014,31.2H326.564L344.1,256.5l.475-.821H249.116l-47.1-81.581,47.1-81.574h95.465L296.847,9.855h0L302.536,0h-1.265l-5.057,8.76L291.157,0h-1.265l5.69,9.855h0l-47.1,81.578H154.917l47.1-81.578.315-.548H105.606l.316.548,47.1,81.578h0l18.013,31.2H116.556l18.013-31.2H39.108L0,23.7v2.19L37.843,91.433H0v1.095H38.475l47.1,81.577-47.1,81.578H0v1.1H37.839L0,322.317v2.19l39.1-67.729h95.466L86.838,174.1,96,158.24l27.8,48.16,47.8-82.784,29.152,50.493-47.73,82.669h95.462l47.1,81.578h0l-47.1,81.577H154.917l47.1-81.577.315-.548H105.606l.316.548,47.1,81.577h0L163.448,438h1.265l-9.8-16.972h92.933L238.049,438h1.265l9.8-16.972h95.465l-47.731-82.672h0l9.16-15.864,9.159,15.864h0l18.646,32.295,18.645-32.295h0l29.15-50.49,29.151,50.49v0L363.5,420.206l-.475.821H438v-1.1H364.927l46.465-80.483,8.624,14.937h0L438,385.534v-2.19L420.017,352.2h0l-7.992-13.842v0l7.993-13.845h0L438,293.358v-2.19l-17.983,31.148h0l-8.628,14.943-46.466-80.483H438v-1.1H364.926ZM296.215,10.95,342.68,91.433H249.748ZM132.672,255.683H39.74L86.206,175.2ZM86.206,173.01,39.74,92.528h92.933l-17.381,30.1H75.44l19.926,34.512Zm-8.869-49.283H114.66L96,156.05ZM123.8,204.21,96.63,157.145l19.294-33.417h54.345ZM107.5,10.4h92.933L153.969,90.885Zm47.411,82.125h92.933L201.38,173.01Zm0,163.155L201.385,175.2l46.466,80.483Zm-.948,163.7L107.5,338.9h92.933Zm188.711.547H249.748l46.467-80.483ZM296.215,337.26l-46.467-80.483H342.68l-17.381,30.1H285.448L305.374,321.4Zm-8.871-49.283h37.323L306.006,320.3Zm63.848,50.378h0l-17.38,30.1-17.382-30.1h0L306.638,321.4l19.293-33.418h54.346Zm12.785-83.22-46.466-80.482h92.933Z"/><path class="a" d="M388.521,25.887h0L406.5,57.035v-2.19L388.521,23.7h0L380.529,9.855l0,0L386.216,0h-1.264l-5.058,8.76L374.836,0h-1.264l5.69,9.855,0,0L332.009,91.706l-.475.821H406.5V91.433H333.431L379.9,10.95Z" transform="translate(31.496)"/><path class="a" d="M0,321.641v2.19l37.843,65.546H0v1.1H38.475l9.8,16.972h1.265l-9.8-16.972h92.933l-9.8,16.972h1.265l10.431-18.067H39.108Z" transform="translate(0 30.556)"/></svg>