<svg xmlns="http://www.w3.org/2000/svg" width="28.74" height="28.738" viewBox="0 0 28.74 28.738"><defs><style>.a{fill:#fff;}</style></defs><path class="a" d="M265.186,902H247.554A5.56,5.56,0,0,0,242,907.554v17.631a5.56,5.56,0,0,0,5.554,5.554h17.633a5.56,5.56,0,0,0,5.554-5.554V907.554A5.56,5.56,0,0,0,265.186,902Zm1.591,3.312.636,0v4.871l-4.855.016-.016-4.871Zm-14.509,8.106a5.049,5.049,0,1,1-.957,2.951A5.051,5.051,0,0,1,252.269,913.418Zm15.671,11.766a2.756,2.756,0,0,1-2.753,2.753H247.554a2.756,2.756,0,0,1-2.753-2.753V913.418h4.289a7.858,7.858,0,1,0,14.559,0h4.291Z" transform="translate(-242 -902)"/></svg>