<?xml version="1.0" encoding="utf-8"?>
<!-- Generator: Adobe Illustrator 23.0.2, SVG Export Plug-In . SVG Version: 6.00 Build 0)  -->
<svg version="1.1" id="Layer_1" xmlns="http://www.w3.org/2000/svg" xmlns:xlink="http://www.w3.org/1999/xlink" x="0px" y="0px"
	 viewBox="0 0 893.9 174" style="enable-background:new 0 0 893.9 174;" xml:space="preserve">
<style type="text/css">
	.st0{fill:#693A7C;}
</style>
<path class="st0" d="M216.6,145.2c0,5.3-1.9,11.2-5.6,14.9c-2.7,2.7-6.3,4.3-10.6,4.3c-8,0-11.7-6-11.7-12.5
	c0-5.4,2.1-11.4,5.9-15.1c2.6-2.6,6.4-4.2,10.3-4.2C213.3,132.5,216.6,138.6,216.6,145.2z M197.4,138.8c-3,3-4.7,8.4-4.7,12.7
	c0,5,2.2,9.6,8.3,9.6c2.6,0,5.1-1.1,7-3.1c2.9-2.9,4.6-8.5,4.6-12.8c0-4.4-1.4-9.6-8.1-9.6C201.7,135.7,199.3,136.9,197.4,138.8z
	 M228.3,131.4l-2.9,14.4h0.1c2-3,4.8-4.5,7.8-4.5c4.8,0,6.7,4,6.7,8c0,6.8-4.9,15.2-13.8,15.2c-3.9,0-6.8-1.6-6.8-5.7
	c0-1.1,0.2-2.4,0.4-3.4l4.8-23.8H228.3z M223.5,155.3c-0.2,0.7-0.3,1.6-0.3,2.8c0,2.1,1.2,3.3,3.6,3.3c5.7,0,9.2-6.8,9.2-11.7
	c0-2.7-1.2-5.3-4.2-5.3c-3.3,0-6.7,3.4-7.8,8.6L223.5,155.3z M242.5,160c1.1,0.6,3,1.4,4.8,1.4c2.6,0,4.2-1.6,4.2-3.6
	c0-1.7-0.8-2.8-3.1-4.1c-2.6-1.4-4-3.4-4-5.6c0-3.9,3.3-6.9,8-6.9c2,0,3.8,0.5,4.6,1.1l-1.1,2.9c-0.8-0.5-2.2-1-3.8-1
	c-2.3,0-3.9,1.4-3.9,3.3c0,1.6,1.1,2.6,3,3.7c2.5,1.4,4.2,3.3,4.2,5.8c0,4.7-3.8,7.3-8.5,7.3c-2.4,0-4.5-0.7-5.5-1.5L242.5,160z
	 M269.1,135.8l-1.1,5.9h5.3l-0.6,3h-5.3l-2.1,10.7c-0.2,1.2-0.4,2.4-0.4,3.6c0,1.3,0.6,2.1,2.1,2.1c0.6,0,1.3,0,1.8-0.1l-0.2,3
	c-0.7,0.3-1.8,0.4-2.9,0.4c-3.4,0-4.7-2.1-4.7-4.3c0-1.3,0.1-2.6,0.5-4.2l2.2-11.2h-3.2l0.6-3h3.2l1-5L269.1,135.8z M289.1,162.6
	c-1.6,1-4.3,1.7-7.3,1.7c-5.9,0-8.4-4-8.4-8.9c0-6.7,4.9-14.2,12.1-14.2c4.2,0,6.5,2.5,6.5,5.7c0,5.8-6.5,7.4-14.7,7.2
	c-0.2,1,0,3,0.5,4.2c0.9,2,2.7,3,4.9,3c2.6,0,4.6-0.8,5.9-1.6L289.1,162.6z M284.9,144.2c-3.6,0-6.3,3.5-7.2,7
	c5.9,0,10.6-0.7,10.6-4.2C288.3,145.2,286.9,144.2,284.9,144.2z M303.6,135.8l-1.1,5.9h5.3l-0.6,3h-5.3l-2.1,10.7
	c-0.2,1.2-0.4,2.4-0.4,3.6c0,1.3,0.6,2.1,2.1,2.1c0.6,0,1.3,0,1.8-0.1l-0.2,3c-0.7,0.3-1.8,0.4-2.9,0.4c-3.4,0-4.7-2.1-4.7-4.3
	c0-1.3,0.1-2.6,0.5-4.2l2.2-11.2H295l0.6-3h3.2l1-5L303.6,135.8z M307.8,163.9l2.7-14.3c0.5-2.9,0.9-5.8,1.1-7.9h3.3
	c-0.2,1.6-0.4,3.1-0.6,4.8h0.1c1.4-3,3.8-5.3,6.8-5.3c0.3,0,0.8,0,1.1,0.1l-0.7,3.7c-0.2,0-0.6-0.1-1-0.1c-3.3,0-6.2,4-7.2,9.1
	l-1.8,9.7H307.8z M322.2,163.9l4.3-22.1h3.8l-4.3,22.1H322.2z M327.1,135.6c0-1.5,1.1-2.6,2.5-2.6c1.4,0,2.2,1,2.2,2.4
	c0,1.5-1.1,2.6-2.6,2.6C328,137.9,327.1,136.9,327.1,135.6z M347.7,163c-1.1,0.5-3.4,1.3-6.4,1.3c-5.7,0-8.5-3.8-8.5-8.5
	c0-7.5,5.6-14.5,13.5-14.5c2.1,0,3.9,0.6,4.6,1l-1.1,3c-0.9-0.4-2.1-0.8-3.7-0.8c-5.8,0-9.4,5.7-9.4,10.9c0,3.6,1.9,5.9,5.5,5.9
	c2.2,0,4-0.7,5.1-1.2L347.7,163z M351.9,160c1.1,0.6,3,1.4,4.8,1.4c2.6,0,4.2-1.6,4.2-3.6c0-1.7-0.8-2.8-3.1-4.1
	c-2.6-1.4-4-3.4-4-5.6c0-3.9,3.3-6.9,8-6.9c2,0,3.8,0.5,4.6,1.1l-1.1,2.9c-0.8-0.5-2.2-1-3.8-1c-2.3,0-3.9,1.4-3.9,3.3
	c0,1.6,1.1,2.6,3,3.7c2.5,1.4,4.2,3.3,4.2,5.8c0,4.7-3.8,7.3-8.5,7.3c-2.4,0-4.5-0.7-5.5-1.5L351.9,160z M395.4,163.9
	c-0.8-0.9-1.4-1.7-2.1-2.8c-2.6,2.3-5.3,3.3-8.6,3.3c-5.3,0-8.4-3.4-8.4-7.7c0-4.8,3.8-8.1,7.6-9.9v-0.1c-1.1-2-1.6-3.7-1.6-5.6
	c0-4.6,3.4-8.4,8.1-8.4c4.1,0,6.2,2.8,6.2,6.1c0,3.7-2.6,6.5-7.9,9v0.1c1.7,2.9,3.9,6.3,5.5,8.5c1.9-2.3,3.3-5.3,4.7-9.2h3.6
	c-1.7,4.9-3.7,8.8-6.5,11.7c1.1,1.6,2.4,3.3,3.9,5.1H395.4z M391.7,158.6c-1.4-2.1-4.1-5.9-6.4-9.7c-2,1.2-5.2,3.4-5.2,7.2
	c0,3,2,5.3,5.5,5.3C388.1,161.4,390.1,160.3,391.7,158.6z M385.7,140.5c0,1.7,0.5,3.3,1.5,4.9c3.7-1.8,5.9-3.8,5.9-6.7
	c0-1.8-0.8-3.5-3.1-3.5C387.7,135.2,385.7,137.5,385.7,140.5z M434.5,162.5c-1.8,0.7-5.1,1.6-8.7,1.6c-4.3,0-7.7-1.2-10.1-3.8
	c-2.3-2.6-3.1-5.9-3.1-9c0-5.1,2.1-10.5,6-14c3.3-2.9,7.7-4.6,12.7-4.6c3.8,0,6.4,0.9,7.3,1.4l-1.2,3.2c-1.6-0.8-3.7-1.3-6.5-1.3
	c-3.7,0-7,1.3-9.6,3.7c-2.9,2.7-4.6,7.1-4.6,11.3c0,5.9,3,9.9,9.8,9.9c1.8,0,3.6-0.4,4.7-0.9l1.7-9.2h-6.3l0.6-3.1h10L434.5,162.5z
	 M444.8,141.7l2.2,11.9c0.5,2.5,0.8,4.2,1,5.8h0.1c0.6-1.4,1.2-3,2.4-5.4l5.6-12.3h4l-8.3,16.8c-2.4,4.8-4.6,8.7-7.6,11.6
	c-2.5,2.5-5.2,3.6-6.4,3.8l-0.9-3.2c1-0.4,2.6-1,4.1-2.1c1.5-1.1,3.1-2.9,4.3-5.1c0.2-0.4,0.2-0.6,0.1-1l-4.4-20.8H444.8z
	 M459.9,163.9l3-15.7c0.5-2.5,0.8-4.6,1.1-6.4h3.4l-0.5,4.3h0.1c2-3.1,4.9-4.8,8.2-4.8c2.7,0,5.6,1.5,5.6,6.2c0,1-0.2,2.4-0.4,3.6
	l-2.5,12.9H474l2.4-12.8c0.2-0.9,0.3-1.9,0.3-2.8c0-2.2-0.9-3.9-3.5-3.9c-2.7,0-6.5,3.2-7.5,8.7l-2,10.7H459.9z M500.1,162.6
	c-1.6,1-4.3,1.7-7.3,1.7c-5.9,0-8.4-4-8.4-8.9c0-6.7,4.9-14.2,12.1-14.2c4.2,0,6.5,2.5,6.5,5.7c0,5.8-6.5,7.4-14.7,7.2
	c-0.2,1,0,3,0.5,4.2c0.9,2,2.7,3,4.9,3c2.6,0,4.6-0.8,5.9-1.6L500.1,162.6z M495.9,144.2c-3.6,0-6.3,3.5-7.2,7
	c5.9,0,10.6-0.7,10.6-4.2C499.3,145.2,497.9,144.2,495.9,144.2z M519.9,163c-1.1,0.5-3.4,1.3-6.4,1.3c-5.7,0-8.5-3.8-8.5-8.5
	c0-7.5,5.6-14.5,13.5-14.5c2.1,0,3.9,0.6,4.6,1l-1.1,3c-0.9-0.4-2.1-0.8-3.7-0.8c-5.8,0-9.4,5.7-9.4,10.9c0,3.6,1.9,5.9,5.5,5.9
	c2.2,0,4-0.7,5.1-1.2L519.9,163z M544.7,150.5c0,6.8-4.8,13.9-12.3,13.9c-5.5,0-8.6-4.1-8.6-9.1c0-7.3,5.1-14,12.3-14
	C542,141.2,544.7,145.8,544.7,150.5z M527.7,155.1c0,3.6,2,6.2,5.2,6.2c4.5,0,7.9-5.8,7.9-10.9c0-2.6-1.2-6.2-5.2-6.2
	C530.9,144.2,527.7,150,527.7,155.1z M547.2,163.9l6.2-32.5h3.8l-6.2,32.5H547.2z M578.6,150.5c0,6.8-4.8,13.9-12.3,13.9
	c-5.5,0-8.6-4.1-8.6-9.1c0-7.3,5.1-14,12.3-14C576,141.2,578.6,145.8,578.6,150.5z M561.7,155.1c0,3.6,2,6.2,5.2,6.2
	c4.5,0,7.9-5.8,7.9-10.9c0-2.6-1.2-6.2-5.2-6.2C564.8,144.2,561.6,150,561.7,155.1z M581.5,168.9c1.3,0.8,3.5,1.5,5.9,1.5
	c3.7,0,6.6-1.9,8-7.9l0.7-3.3h-0.1c-1.9,3.2-4.6,4.7-7.7,4.7c-4.4,0-6.7-3.7-6.7-7.7c0-7.5,5.5-14.9,14-14.9c2.6,0,5.3,0.7,7.1,1.6
	l-3.4,18.3c-0.9,4.7-2.1,7.9-4.5,9.9c-2.2,1.9-5.2,2.5-7.7,2.5c-2.7,0-5.2-0.6-6.6-1.6L581.5,168.9z M598.4,145
	c-0.7-0.3-2.1-0.7-3.7-0.7c-5.5,0-9.3,5.8-9.4,11.2c0,2.4,0.9,5.3,4.3,5.3c3.2,0,6.5-4.1,7.4-8.5L598.4,145z M609.9,141.7l2.2,11.9
	c0.5,2.5,0.8,4.2,1,5.8h0.1c0.6-1.4,1.2-3,2.4-5.4l5.6-12.3h4l-8.3,16.8c-2.4,4.8-4.6,8.7-7.6,11.6c-2.5,2.5-5.2,3.6-6.4,3.8
	l-0.9-3.2c1-0.4,2.6-1,4.1-2.1c1.5-1.1,3.1-2.9,4.3-5.1c0.2-0.4,0.2-0.6,0.1-1l-4.4-20.8H609.9z M632.3,159.1c1.6,1.1,4,2,6.5,2
	c3.5,0,6.7-2.1,6.7-5.8c0-2.3-1.3-4-4.5-5.8c-3.9-2.1-6.1-4.6-6.1-7.9c0-5.5,4.8-9.1,10.4-9.1c3,0,5.2,0.9,6.3,1.6l-1.4,3.1
	c-1-0.5-2.9-1.5-5.3-1.4c-3.8,0-6.1,2.5-6.1,5c0,2.5,1.6,3.9,4.8,5.7c3.8,2,5.9,4.4,5.9,8.2c0,5.3-4.2,9.5-11.1,9.5
	c-3.1,0-6.1-1-7.4-2.1L632.3,159.1z M650.8,172.9l4.4-23.3c0.5-2.7,0.9-5.6,1.2-7.9h3.5l-0.6,4.2h0.1c2-2.9,4.9-4.7,8-4.7
	c4.8,0,6.8,3.9,6.8,8c0,7.8-5.6,15.1-12.9,15.1c-2.4,0-3.9-0.5-4.8-1h-0.1l-1.8,9.6H650.8z M657,160.2c1,0.8,2.4,1.2,4.2,1.2
	c4.9,0,9-6.1,9-11.9c0-2.3-1.1-5.1-4.3-5.1c-3,0-6.7,3.4-7.9,9.6L657,160.2z M692.7,162.6c-1.6,1-4.3,1.7-7.3,1.7
	c-5.9,0-8.4-4-8.4-8.9c0-6.7,4.9-14.2,12.1-14.2c4.2,0,6.5,2.5,6.5,5.7c0,5.8-6.5,7.4-14.7,7.2c-0.2,1,0,3,0.5,4.2
	c0.9,2,2.7,3,4.9,3c2.6,0,4.6-0.8,5.9-1.6L692.7,162.6z M688.5,144.2c-3.6,0-6.3,3.5-7.2,7c5.9,0,10.6-0.7,10.6-4.2
	C691.9,145.2,690.5,144.2,688.5,144.2z M712.5,163c-1.1,0.5-3.4,1.3-6.4,1.3c-5.7,0-8.5-3.8-8.5-8.5c0-7.5,5.6-14.5,13.5-14.5
	c2.1,0,3.9,0.6,4.6,1l-1.1,3c-0.9-0.4-2.1-0.8-3.7-0.8c-5.8,0-9.4,5.7-9.4,10.9c0,3.6,1.9,5.9,5.5,5.9c2.2,0,4-0.7,5.1-1.2
	L712.5,163z M716.4,163.9l4.3-22.1h3.8l-4.3,22.1H716.4z M721.4,135.6c0-1.5,1.1-2.6,2.5-2.6c1.4,0,2.2,1,2.2,2.4
	c0,1.5-1.1,2.6-2.6,2.6C722.3,137.9,721.4,136.9,721.4,135.6z M741.4,163.9c0-1.3,0.2-3.4,0.5-5.7h-0.1c-2.4,4.6-5.4,6.2-8.6,6.2
	c-3.9,0-6.4-3.1-6.4-7.3c0-7.7,5.7-15.8,15.3-15.8c2.1,0,4.4,0.4,5.9,0.9l-2.2,11.5c-0.7,3.8-1.1,7.8-1,10.2H741.4z M743.9,144.6
	c-0.5-0.1-1.4-0.3-2.7-0.3c-5.7,0-10.4,6-10.4,12.1c0,2.5,0.9,4.9,3.8,4.9c3.2,0,6.9-4.1,8-10L743.9,144.6z M750.5,163.9l6.2-32.5
	h3.8l-6.2,32.5H750.5z M760.7,163.9l4.3-22.1h3.8l-4.3,22.1H760.7z M765.6,135.6c0-1.5,1.1-2.6,2.5-2.6c1.4,0,2.2,1,2.2,2.4
	c0,1.5-1.1,2.6-2.6,2.6C766.5,137.9,765.6,136.9,765.6,135.6z M771.2,160c1.1,0.6,3,1.4,4.8,1.4c2.6,0,4.2-1.6,4.2-3.6
	c0-1.7-0.8-2.8-3.1-4.1c-2.6-1.4-4-3.4-4-5.6c0-3.9,3.3-6.9,8-6.9c2,0,3.8,0.5,4.6,1.1l-1.1,2.9c-0.8-0.5-2.2-1-3.8-1
	c-2.3,0-3.9,1.4-3.9,3.3c0,1.6,1.1,2.6,3,3.7c2.5,1.4,4.2,3.3,4.2,5.8c0,4.7-3.8,7.3-8.5,7.3c-2.4,0-4.5-0.7-5.5-1.5L771.2,160z
	 M797.8,135.8l-1.1,5.9h5.3l-0.6,3h-5.3l-2.1,10.7c-0.2,1.2-0.4,2.4-0.4,3.6c0,1.3,0.6,2.1,2.1,2.1c0.6,0,1.3,0,1.8-0.1l-0.2,3
	c-0.7,0.3-1.8,0.4-2.9,0.4c-3.4,0-4.7-2.1-4.7-4.3c0-1.3,0.1-2.6,0.5-4.2l2.2-11.2h-3.2l0.6-3h3.2l1-5L797.8,135.8z M802.2,160
	c1.1,0.6,3,1.4,4.8,1.4c2.6,0,4.2-1.6,4.2-3.6c0-1.7-0.8-2.8-3.1-4.1c-2.6-1.4-4-3.4-4-5.6c0-3.9,3.3-6.9,8-6.9c2,0,3.8,0.5,4.6,1.1
	l-1.1,2.9c-0.8-0.5-2.2-1-3.8-1c-2.3,0-3.9,1.4-3.9,3.3c0,1.6,1.1,2.6,3,3.7c2.5,1.4,4.2,3.3,4.2,5.8c0,4.7-3.8,7.3-8.5,7.3
	c-2.4,0-4.5-0.7-5.5-1.5L802.2,160z M815.2,169.5c1.4-2.7,3.5-7.6,4.5-10.9l4.5-0.5c-1.6,3.9-4.5,9-6.1,11.1L815.2,169.5z
	 M842,133.5c1.7-0.4,4.2-0.7,6.7-0.7c3,0,5.8,0.7,7.5,2.4c1.5,1.4,2.2,3.2,2.2,5.6c0,3.5-1.7,6.4-3.7,8c-2.4,2-5.9,2.9-9.3,2.9
	c-1.1,0-2.2-0.1-3.2-0.2l-2.3,12.3h-3.7L842,133.5z M842.8,148.3c1.1,0.2,2,0.3,3.1,0.3c5.2,0,8.7-3.2,8.7-7.6
	c0-3.7-2.6-5.1-6.1-5.1c-1.5,0-2.7,0.1-3.3,0.3L842.8,148.3z M853.8,161.7c0-1.7,1.2-3.1,2.9-3.1c1.6,0,2.6,1.1,2.6,2.7
	c0,1.6-1.2,3-2.9,3C854.8,164.4,853.8,163.2,853.8,161.7z M885,162.9c-1.7,0.8-4.5,1.5-8,1.5c-7.8,0-12.5-4.9-12.5-12.8
	c0-5.8,2.3-11.3,6.6-14.9c3.2-2.7,7.1-4.2,11.6-4.2c3.4,0,5.9,0.9,6.7,1.5l-1.2,3.1c-1.1-0.7-3.3-1.3-6.1-1.3
	c-3.2,0-6.4,1.2-8.8,3.5c-2.9,2.7-4.7,7-4.7,11.7c0,5.5,2.5,10.1,9.4,10.1c2.3,0,4.9-0.5,6.6-1.3L885,162.9z M888.5,161.7
	c0-1.7,1.2-3.1,2.9-3.1c1.6,0,2.6,1.1,2.6,2.7c0,1.6-1.2,3-2.9,3C889.5,164.4,888.5,163.2,888.5,161.7z M220.1,14.9L217,31.4h14.7
	l-1.7,8.3h-14.7l-5.7,29.9c-0.6,3.4-1.1,6.6-1.1,9.9c0,3.7,1.8,5.8,5.8,5.8c1.8,0,3.6-0.1,5-0.4l-0.5,8.3c-1.9,0.8-5.1,1.1-8.1,1.1
	c-9.4,0-13-5.7-13-11.9c0-3.6,0.4-7.1,1.3-11.6l6.1-31.1h-8.9l1.7-8.3h8.8l2.7-13.8L220.1,14.9z M231.3,92.9l17.2-90.2H259
	l-7.6,39.6h0.3c5.2-7.5,12.7-12.3,22-12.3c7,0,15.2,4.3,15.2,16.5c0,3.3-0.4,7.2-1,10.4l-6.9,36h-10.5l6.9-35.4
	c0.4-2.3,0.8-5.1,0.8-8.5c0-5.7-2.7-10.2-9.5-10.2c-8.1,0-18.4,9.5-21,23.4l-5.7,30.7H231.3z M306.2,77.6c2.4,5.5,7.4,8.3,13.7,8.3
	c7.2,0,12.7-2.3,16.5-4.3l1.5,7.9c-4.6,2.7-12.1,4.8-20.3,4.8c-16.3,0-23.4-11.1-23.4-24.6C294.3,51,308,30,327.8,30
	c11.7,0,18,7,18,15.8c0,13.4-12.5,18.6-29.7,19.8c0,0-4.8,0.7-4.9-3.9c-0.1-4.1,4.2-4.2,4.2-4.2c12.1-0.7,20.2-3.6,20.2-11.3
	c0-5.1-3.8-7.9-9.4-7.9c-10,0-17.5,9.8-20.1,19.4C302.9,70.4,306.2,77.6,306.2,77.6z M425.6,55.6L420,85.2c-2.5,13-6,22-12.4,27.4
	c-6.1,5.3-14.4,6.9-21.5,6.9c-7.5,0-14.5-1.8-18.4-4.3l3-8.3c3.7,2.3,9.8,4.1,16.3,4.1c10.3,0,18.4-5.3,22.1-22l2-9.1h-0.4
	c-5.3,8.8-12.8,13.1-21.3,13.1c-12.3,0-18.7-10.4-18.7-21.3c-0.1-20.8,15.2-41.5,39-41.5c7.1,0,13.9,1.3,18.7,3.6c0,0,4,1.9,1.8,6.8
	c-1.9,4.2-6.7,2.3-6.7,2.3l-5.4-2.3c-1.9-0.9-6-1.9-10.4-1.9c-15.4,0-25.9,16-26,31.3c0,6.7,2.4,14.7,11.8,14.7
	c9,0,18.2-11.3,20.5-23.3l1.6-7.7c0,0,1.1-5,6.1-4.1C426.7,50.4,425.6,55.6,425.6,55.6z M431.9,92.9l7.5-39.6
	c1.5-8,2.5-16.1,3.2-21.9h9.3c-0.5,4.3-1,8.6-1.7,13.3h0.4c3.9-8.4,10.5-14.7,18.8-14.7c0.9,0,2.2,0.1,2.9,0.3l-2,10.4
	c-0.6-0.1-1.7-0.3-2.8-0.3c-9.1,0-17.3,11.1-19.9,25.4l-5.1,27.1H431.9z M527.6,55.7c0,18.9-13.5,38.6-34,38.6
	c-15.4,0-24-11.4-24-25.3c0-20.2,14.1-39,34-39C520.2,30,527.6,42.6,527.6,55.7z M480.4,68.7c0,10,5.5,17.3,14.5,17.3
	c12.5,0,21.9-16,21.9-30.4c0-7.1-3.3-17.2-14.4-17.2C489.2,38.4,480.3,54.6,480.4,68.7z M590.1,31.4L581.8,75
	c-1.3,6.9-2.2,12.8-2.8,17.9h-9.5l1.7-11.6h-0.3c-5.5,8-13.6,13-21.7,13c-7.9,0-16.1-3.8-16.1-17.8c0-2.9,0.4-6.2,1.1-10.3l6.6-34.8
	h10.5l-6.5,34.3c-0.8,3.4-1.1,6.4-1.1,9c0,6.4,2.7,10.7,9.9,10.7c7.6,0,17.4-8.9,19.9-22.5l6-31.5H590.1z M595.6,118.1h-10.4
	l12.3-64.8c1.3-7.4,2.5-15.6,3.4-21.9h9.7L608.8,43h0.3c5.6-8,13.7-13,22.1-13c13.3,0,18.9,10.9,18.9,22.2c0,21.6-15.5,42.3-36,42.3
	c-1.5,0-2.9-0.1-4.1-0.2c0,0-4.1-0.3-3.6-4.7c0.5-4.2,4.9-3.6,4.9-3.6c0.9,0.1,1.9,0.2,2.9,0.2c13.6,0,24.9-17.1,24.9-33.3
	c0-6.5-2.9-14.2-11.8-14.2c-8.3,0-18.7,9.5-21.9,26.7L595.6,118.1z M87.6,0.2c7.1,0.5,13.9,2.1,20.6,4.5c0.1,0,0.2,0.1,0.3,0.3
	c-2-0.1-3.9,0.3-5.9,0.4C93.4,5.9,84.5,7.9,76,11.6c-6,2.6-11.5,5.9-16.5,10c-5.1,4.2-9.6,9-13.4,14.3c-4.2,5.8-7.6,12.1-9.9,18.9
	c-2.5,7.1-3.7,14.5-3.1,22c0.5,7.1,2.6,13.6,7.4,19.1c4.6,5.3,10.3,8,17.1,9.1c4.1,0.7,8.2,0.9,12.3,0c5-1.1,9.3-3.6,13.3-6.8
	c0.4-0.3,0.8-0.8,1.4-0.8c0.1,0.1,0.1,0.1,0.2,0.2c-0.9,3-2.3,5.7-3.7,8.5c-0.3,0.6-0.9,0.7-1.5,0.8c-12.4,2.4-24.3,6.1-35.4,12
	c-7.6,4-14.5,9-20.3,15.4c-1.5,1.7-1.6,1.7-3,0c-5.4-6.3-10-13.1-13.4-20.7c-2.9-6.4-4.9-13.2-6.1-20.2C0.4,89.2-0.1,84.8,0,80.4
	c0.2-11.1,2.3-21.8,6.8-32c2.9-6.5,6.6-12.6,11-18.2c4.6-5.9,10.1-10.9,16.2-15.3c6.6-4.8,13.8-8.4,21.5-11c5-1.7,10.2-2.9,15.5-3.4
	C71.1,0.5,78.6-0.4,87.6,0.2z M114.6,93c0.3-0.2,0.6-0.3,0.9-0.5c11.1-7.3,20.2-16.3,26.2-28.3c0.9-1.9,2-3.7,3.8-4.9
	c2.1-1.5,4.5-2.2,6.9-0.9c2.4,1.3,3.3,3.6,3.2,6.3c-0.1,1.7-0.6,3.3-1.3,4.9c-3.1,6.7-7,12.9-12.1,18.2c-10,10.5-21.7,18.4-35.1,24
	c-1.5,0.6-2.4,1.4-3.2,2.9c-4.3,8.3-9,16.3-14.4,24c-4.4,6.3-9.3,12.1-15,17.2c-1.8,1.6-3.6,3.2-5.5,4.8c0.3,0.1,0.4,0.2,0.5,0.2
	c9.6,1.4,19.1,1.1,28.5-1c18.6-4.2,34-13.6,45.9-28.4c12.5-15.6,18.4-33.4,17.8-53.4c-0.3-10.4-2.6-20.2-6.7-29.7
	c-2.3-5.3-4.9-10.5-8.9-14.8c-6.4-7-14.6-10-23.9-10.4c-10.3-0.5-19.7,2.6-28.4,7.8c-14,8.4-23.6,20.5-29.6,35.6
	c-2.2,5.5-3.5,11.1-2.7,17.1c0.7,5.4,4.6,8.3,9.9,7.3c3.4-0.6,5.9-2.5,8.3-4.8c4.7-4.5,7.9-10,10.8-15.7
	c5.4-10.6,9.4-21.8,12.6-33.2c1.3-4.6,4-6.3,8.8-5.3c7.9,1.8,13.3,6.7,16.7,14c1.3,2.7,1.3,5.6,0.2,8.3c-3.4,8.6-6.1,17.5-9.6,26.1
	c-1.7,4.2-3.3,8.4-5,12.6C114.5,92.9,114.5,93,114.6,93z M72.4,122.5c-10,2.8-19.6,6.7-27.9,13.1c-3.6,2.8-7,5.8-9.6,9.7
	c-0.8,1.1-0.3,1.6,0.4,2.1c4,2.6,8,5.1,12.4,7.1c1,0.4,1.7,0.3,2.4-0.4c2.1-2.2,4.3-4.3,6.3-6.6c6.3-7.7,11.7-16,16.5-24.8
	C72.6,122.5,72.5,122.4,72.4,122.5z"/>
</svg>
