<svg xmlns="http://www.w3.org/2000/svg" width="9.174" height="20.969" viewBox="0 0 9.174 20.969"><defs><style>.a{fill:#fff;}</style></defs><path class="a" d="M152,365.932v13.105a3.931,3.931,0,0,0,3.932,3.932h3.932a1.311,1.311,0,0,0,1.311-1.311v-3.932a1.311,1.311,0,0,0-1.311-1.311h-2.621v-7.863h2.621a1.311,1.311,0,0,0,1.311-1.311v-3.932A1.311,1.311,0,0,0,159.863,362h-3.932A3.931,3.931,0,0,0,152,365.932Zm7.863-2.621v3.932h-3.932v10.484h3.932v3.932h-3.932a2.62,2.62,0,0,1-2.621-2.621V365.932a2.62,2.62,0,0,1,2.621-2.621Z" transform="translate(-152 -362)"/></svg>